# xmcd
#
# Track frame offsets: 
#        150
#        6748
#        21913
#        35556
#        59279
#        75978
#        85540
#        103692
#        108712
#        125510
#        142608
#        157301
#
# Disc length: 2246 seconds
#
# Revision: 0
# Processed by: cddbd v1.5.1PL0 Copyright (c) Steve Scherf et al.
# Submitted via: ExactAudioCopy v0.95a4
#
DISCID=9808c40c
DTITLE=Montag - Alone, Not Alone
DYEAR=2005
DGENRE=Electronic
TTITLE0=Le temps d'observer les voies ouvertes
TTITLE1=Grand Luxe
TTITLE2=Temps Partiel
TTITLE3=Perfect Vision
TTITLE4=All I see
TTITLE5=Time difference II
TTITLE6=Figures of a new color
TTITLE7=Motif
TTITLE8=Angles, Country and Terrain Connu
TTITLE9=Les chose se placent
TTITLE10=Exit Melodie
TTITLE11=(lady grey)
EXTD=
EXTT0=
EXTT1=
EXTT2=
EXTT3=
EXTT4=
EXTT5=
EXTT6=
EXTT7=
EXTT8=
EXTT9=
EXTT10=
EXTT11=
PLAYORDER=
